<?xml version="1.0" encoding="UTF-8" standalone="no"?>
<!DOCTYPE svg PUBLIC "-//W3C//DTD SVG 1.1//EN"
 "http://www.w3.org/Graphics/SVG/1.1/DTD/svg11.dtd">
<!-- Generated by graphviz version 2.43.0 (0)
 -->
<!-- Title: CombinedCFGDefUse Pages: 1 -->
<svg width="2056pt" height="875pt"
 viewBox="0.00 0.00 2056.00 874.80" xmlns="http://www.w3.org/2000/svg" xmlns:xlink="http://www.w3.org/1999/xlink">
<g id="graph0" class="graph" transform="scale(1 1) rotate(0) translate(4 870.8)">
<title>CombinedCFGDefUse</title>
<polygon fill="white" stroke="transparent" points="-4,4 -4,-870.8 2052,-870.8 2052,4 -4,4"/>
<g id="clust1" class="cluster">
<title>cluster_compute</title>
<polygon fill="#f0f8ff" stroke="#3366cc" stroke-width="2" points="8,-8 8,-756.8 484,-756.8 484,-8 8,-8"/>
<text text-anchor="middle" x="246" y="-744" font-family="Times,serif" font-size="11.00">compute()</text>
</g>
<g id="clust2" class="cluster">
<title>cluster_main</title>
<polygon fill="#f0f8ff" stroke="#3366cc" stroke-width="2" points="492,-511.76 492,-852.82 1360,-852.82 1360,-511.76 492,-511.76"/>
<text text-anchor="middle" x="926" y="-840.02" font-family="Times,serif" font-size="11.00">main()</text>
</g>
<g id="clust3" class="cluster">
<title>cluster_legend</title>
<path fill="#ffffff" stroke="#888888" d="M1380,-786.8C1380,-786.8 2028,-786.8 2028,-786.8 2034,-786.8 2040,-792.8 2040,-798.8 2040,-798.8 2040,-846.8 2040,-846.8 2040,-852.8 2034,-858.8 2028,-858.8 2028,-858.8 1380,-858.8 1380,-858.8 1374,-858.8 1368,-852.8 1368,-846.8 1368,-846.8 1368,-798.8 1368,-798.8 1368,-792.8 1374,-786.8 1380,-786.8"/>
<text text-anchor="middle" x="1704" y="-846" font-family="Times,serif" font-size="11.00">Legend</text>
</g>
<!-- compute_%b -->
<g id="node1" class="node">
<title>compute_%b</title>
<ellipse fill="#d0e8ff" stroke="black" cx="345" cy="-710.8" rx="94.55" ry="18"/>
<text text-anchor="middle" x="345" y="-708.3" font-family="Courier New" font-size="10.00">i32 %b (arg1) &#160;&#160;&#160;VALUE=5</text>
</g>
<!-- compute_%mul -->
<g id="node6" class="node">
<title>compute_%mul</title>
<polygon fill="white" stroke="black" points="289,-460.76 97,-460.76 97,-438.76 289,-438.76 289,-460.76"/>
<text text-anchor="middle" x="193" y="-447.86" font-family="Courier New" font-size="8.00"> &#160;%mul = mul nsw i32 %a, %b &#160;&#160;&#160;VALUE=10</text>
</g>
<!-- compute_%b&#45;&gt;compute_%mul -->
<g id="edge22" class="edge">
<title>compute_%b&#45;&gt;compute_%mul</title>
<path fill="none" stroke="black" stroke-width="1.2" stroke-dasharray="5,2" d="M317.62,-693.48C277.39,-667.48 204.94,-612.31 185,-541.76 178.26,-517.9 182.73,-489.25 187.24,-470.56"/>
<polygon fill="black" stroke="black" stroke-width="1.2" points="189.81,-460.81 191.61,-471.63 188.63,-465.67 187.36,-470.5 187.26,-470.48 187.16,-470.45 188.44,-465.62 182.91,-469.33 189.81,-460.81 189.81,-460.81"/>
</g>
<!-- compute_%add -->
<g id="node8" class="node">
<title>compute_%add</title>
<polygon fill="white" stroke="black" points="442,-623.78 254,-623.78 254,-601.78 442,-601.78 442,-623.78"/>
<text text-anchor="middle" x="348" y="-610.88" font-family="Courier New" font-size="8.00"> &#160;%add = add nsw i32 %a, %b &#160;&#160;&#160;VALUE=7</text>
</g>
<!-- compute_%b&#45;&gt;compute_%add -->
<g id="edge21" class="edge">
<title>compute_%b&#45;&gt;compute_%add</title>
<path fill="none" stroke="black" stroke-width="1.2" stroke-dasharray="5,2" d="M345.54,-692.64C346.05,-676.26 346.82,-651.59 347.36,-634.21"/>
<polygon fill="black" stroke="black" stroke-width="1.2" points="347.68,-624.01 351.87,-634.14 347.62,-629.01 347.47,-634.01 347.37,-634 347.27,-634 347.42,-629 342.87,-633.86 347.68,-624.01 347.68,-624.01"/>
</g>
<!-- compute_%a -->
<g id="node2" class="node">
<title>compute_%a</title>
<ellipse fill="#d0e8ff" stroke="black" cx="116" cy="-710.8" rx="94.55" ry="18"/>
<text text-anchor="middle" x="116" y="-708.3" font-family="Courier New" font-size="10.00">i32 %a (arg0) &#160;&#160;&#160;VALUE=2</text>
</g>
<!-- compute_%a&#45;&gt;compute_%mul -->
<g id="edge24" class="edge">
<title>compute_%a&#45;&gt;compute_%mul</title>
<path fill="none" stroke="black" stroke-width="1.2" stroke-dasharray="5,2" d="M89.41,-693.4C60.5,-673.29 20.35,-637.35 36,-600.76 62.58,-538.61 128.94,-489.94 166.33,-466.35"/>
<polygon fill="black" stroke="black" stroke-width="1.2" points="175.16,-460.9 169.01,-469.98 170.96,-463.61 166.7,-466.23 166.65,-466.15 166.6,-466.06 170.85,-463.44 164.29,-462.32 175.16,-460.9 175.16,-460.9"/>
</g>
<!-- compute_%a&#45;&gt;compute_%add -->
<g id="edge23" class="edge">
<title>compute_%a&#45;&gt;compute_%add</title>
<path fill="none" stroke="black" stroke-width="1.2" stroke-dasharray="5,2" d="M153.53,-694.27C198.03,-675.85 271.53,-645.43 314.28,-627.74"/>
<polygon fill="black" stroke="black" stroke-width="1.2" points="323.69,-623.84 316.17,-631.83 319.1,-625.85 314.48,-627.76 314.45,-627.67 314.41,-627.58 319.03,-625.66 312.73,-623.51 323.69,-623.84 323.69,-623.84"/>
</g>
<!-- compute::const_2 -->
<g id="node3" class="node">
<title>compute::const_2</title>
<ellipse fill="#e0e0e0" stroke="black" cx="117" cy="-612.78" rx="62.87" ry="12.04"/>
<text text-anchor="middle" x="117" y="-610.88" font-family="Courier New" font-size="8.00">i32 2 &#160;&#160;&#160;VALUE=2</text>
</g>
<!-- compute_%add1 -->
<g id="node7" class="node">
<title>compute_%add1</title>
<polygon fill="white" stroke="black" points="399.5,-541.76 202.5,-541.76 202.5,-519.76 399.5,-519.76 399.5,-541.76"/>
<text text-anchor="middle" x="301" y="-528.86" font-family="Courier New" font-size="8.00"> &#160;%add1 = add nsw i32 %add, 2 &#160;&#160;&#160;VALUE=9</text>
</g>
<!-- compute::const_2&#45;&gt;compute_%add1 -->
<g id="edge28" class="edge">
<title>compute::const_2&#45;&gt;compute_%add1</title>
<path fill="none" stroke="black" stroke-width="1.2" stroke-dasharray="5,2" d="M140.68,-601.48C173.29,-587.3 232.14,-561.71 268.74,-545.79"/>
<polygon fill="black" stroke="black" stroke-width="1.2" points="277.99,-541.77 270.62,-549.88 273.45,-543.85 268.86,-545.85 268.82,-545.76 268.78,-545.66 273.37,-543.67 267.03,-541.63 277.99,-541.77 277.99,-541.77"/>
</g>
<!-- compute_%inst_5a55e138fea0 -->
<g id="node4" class="node">
<title>compute_%inst_5a55e138fea0</title>
<polygon fill="#ffe0e0" stroke="#cc0000" points="382,-286.76 172,-286.76 172,-264.76 382,-264.76 382,-286.76"/>
<text text-anchor="middle" x="277" y="-273.86" font-family="Courier New" font-size="8.00"> &#160;br i1 %cmp, label %if.then, label %if.end</text>
</g>
<!-- compute_%inst_5a55e138fff0 -->
<g id="node9" class="node">
<title>compute_%inst_5a55e138fff0</title>
<polygon fill="#ffe0e0" stroke="#cc0000" points="241,-205.76 143,-205.76 143,-183.76 241,-183.76 241,-205.76"/>
<text text-anchor="middle" x="192" y="-192.86" font-family="Courier New" font-size="8.00"> &#160;br label %return</text>
</g>
<!-- compute_%inst_5a55e138fea0&#45;&gt;compute_%inst_5a55e138fff0 -->
<g id="edge5" class="edge">
<title>compute_%inst_5a55e138fea0&#45;&gt;compute_%inst_5a55e138fff0</title>
<path fill="none" stroke="#0066cc" stroke-width="2.5" d="M266.23,-264.76C252.26,-251.77 227.65,-228.9 210.62,-213.07"/>
<polygon fill="#0066cc" stroke="#0066cc" stroke-width="2.5" points="212.65,-210.18 202.95,-205.93 207.89,-215.31 212.65,-210.18"/>
</g>
<!-- compute_%inst_5a55e138ff80 -->
<g id="node10" class="node">
<title>compute_%inst_5a55e138ff80</title>
<polygon fill="#ffe0e0" stroke="#cc0000" points="375,-205.76 277,-205.76 277,-183.76 375,-183.76 375,-205.76"/>
<text text-anchor="middle" x="326" y="-192.86" font-family="Courier New" font-size="8.00"> &#160;br label %return</text>
</g>
<!-- compute_%inst_5a55e138fea0&#45;&gt;compute_%inst_5a55e138ff80 -->
<g id="edge4" class="edge">
<title>compute_%inst_5a55e138fea0&#45;&gt;compute_%inst_5a55e138ff80</title>
<path fill="none" stroke="#0066cc" stroke-width="2.5" d="M283.21,-264.76C290.97,-252.24 304.42,-230.55 314.18,-214.82"/>
<polygon fill="#0066cc" stroke="#0066cc" stroke-width="2.5" points="317.39,-216.28 319.69,-205.93 311.44,-212.59 317.39,-216.28"/>
</g>
<!-- compute_%cmp -->
<g id="node5" class="node">
<title>compute_%cmp</title>
<polygon fill="#fff2cc" stroke="#ff9900" points="277,-379.76 116,-362.76 277,-345.76 438,-362.76 277,-379.76"/>
<text text-anchor="middle" x="277" y="-360.86" font-family="Courier New" font-size="8.00"> &#160;%cmp = icmp sgt i32 %add, %mul</text>
</g>
<!-- compute_%cmp&#45;&gt;compute_%inst_5a55e138fea0 -->
<g id="edge7" class="edge">
<title>compute_%cmp&#45;&gt;compute_%inst_5a55e138fea0</title>
<path fill="none" stroke="#0066cc" stroke-width="2.5" d="M266.37,-346.56C262.94,-332.73 262.58,-312.21 265.3,-296.99"/>
<polygon fill="#0066cc" stroke="#0066cc" stroke-width="2.5" points="268.77,-297.57 267.83,-287.02 261.98,-295.85 268.77,-297.57"/>
</g>
<!-- compute_%cmp&#45;&gt;compute_%inst_5a55e138fea0 -->
<g id="edge16" class="edge">
<title>compute_%cmp&#45;&gt;compute_%inst_5a55e138fea0</title>
<path fill="none" stroke="black" stroke-width="1.2" stroke-dasharray="5,2" d="M287.63,-346.56C291.06,-332.73 291.42,-312.21 288.7,-296.99"/>
<polygon fill="black" stroke="black" stroke-width="1.2" points="286.17,-287.02 292.99,-295.61 287.49,-291.84 288.72,-296.69 288.63,-296.71 288.53,-296.74 287.3,-291.89 284.26,-297.82 286.17,-287.02 286.17,-287.02"/>
</g>
<!-- compute_%mul&#45;&gt;compute_%cmp -->
<g id="edge8" class="edge">
<title>compute_%mul&#45;&gt;compute_%cmp</title>
<path fill="none" stroke="#0066cc" stroke-width="2.5" d="M193.86,-438.68C202.32,-425.24 225.25,-401.18 245.37,-383.94"/>
<polygon fill="#0066cc" stroke="#0066cc" stroke-width="2.5" points="247.71,-386.55 253.19,-377.48 243.25,-381.15 247.71,-386.55"/>
</g>
<!-- compute_%mul&#45;&gt;compute_%cmp -->
<g id="edge17" class="edge">
<title>compute_%mul&#45;&gt;compute_%cmp</title>
<path fill="none" stroke="black" stroke-width="1.2" stroke-dasharray="5,2" d="M212.07,-438.68C229.07,-426.05 251.85,-404.04 266.11,-387.13"/>
<polygon fill="black" stroke="black" stroke-width="1.2" points="272.36,-379.3 269.63,-389.93 269.32,-383.27 266.2,-387.18 266.12,-387.12 266.04,-387.06 269.16,-383.15 262.6,-384.31 272.36,-379.3 272.36,-379.3"/>
</g>
<!-- compute_%retval.0 -->
<g id="node12" class="node">
<title>compute_%retval.0</title>
<polygon fill="#f0e0ff" stroke="#800080" points="476,-110.88 361,-124.64 131,-124.64 16,-110.88 131,-97.12 361,-97.12 476,-110.88"/>
<text text-anchor="middle" x="246" y="-108.98" font-family="Courier New" font-size="8.00"> &#160;%retval.0 = phi i32 [ %add, %if.then ], [ %mul, %if.end ]</text>
</g>
<!-- compute_%mul&#45;&gt;compute_%retval.0 -->
<g id="edge18" class="edge">
<title>compute_%mul&#45;&gt;compute_%retval.0</title>
<path fill="none" stroke="black" stroke-width="1.2" stroke-dasharray="5,2" d="M157.55,-438.75C124.09,-426.88 79,-403.51 79,-363.76 79,-363.76 79,-363.76 79,-193.76 79,-159.23 108.14,-139.26 142.08,-127.71"/>
<polygon fill="black" stroke="black" stroke-width="1.2" points="151.76,-124.67 143.57,-131.96 147.02,-126.26 142.25,-127.76 142.22,-127.67 142.19,-127.57 146.96,-126.07 140.87,-123.37 151.76,-124.67 151.76,-124.67"/>
</g>
<!-- compute_%add1&#45;&gt;compute_%mul -->
<g id="edge10" class="edge">
<title>compute_%add1&#45;&gt;compute_%mul</title>
<path fill="none" stroke="#0066cc" stroke-width="2.5" d="M287.32,-519.76C269.16,-506.47 236.87,-482.85 215.2,-467"/>
<polygon fill="#0066cc" stroke="#0066cc" stroke-width="2.5" points="217.05,-464.01 206.91,-460.93 212.91,-469.66 217.05,-464.01"/>
</g>
<!-- compute_%add&#45;&gt;compute_%cmp -->
<g id="edge26" class="edge">
<title>compute_%add&#45;&gt;compute_%cmp</title>
<path fill="none" stroke="black" stroke-width="1.2" stroke-dasharray="5,2" d="M364.12,-601.65C389.06,-584.58 432.64,-548.36 418,-511.76 395.58,-455.72 340.71,-408.81 306.41,-383.64"/>
<polygon fill="black" stroke="black" stroke-width="1.2" points="298.16,-377.72 308.91,-379.9 302.28,-380.56 306.34,-383.47 306.28,-383.55 306.22,-383.64 302.16,-380.72 303.66,-387.21 298.16,-377.72 298.16,-377.72"/>
</g>
<!-- compute_%add&#45;&gt;compute_%add1 -->
<g id="edge11" class="edge">
<title>compute_%add&#45;&gt;compute_%add1</title>
<path fill="none" stroke="#0066cc" stroke-width="2.5" d="M332.7,-601.65C320.85,-589.14 307.35,-567.59 300.86,-551.71"/>
<polygon fill="#0066cc" stroke="#0066cc" stroke-width="2.5" points="304.05,-550.21 297.59,-541.81 297.4,-552.41 304.05,-550.21"/>
</g>
<!-- compute_%add&#45;&gt;compute_%add1 -->
<g id="edge25" class="edge">
<title>compute_%add&#45;&gt;compute_%add1</title>
<path fill="none" stroke="black" stroke-width="1.2" stroke-dasharray="5,2" d="M351.39,-601.65C348.42,-588.54 335.58,-565.49 322.83,-549.47"/>
<polygon fill="black" stroke="black" stroke-width="1.2" points="316.22,-541.81 326.16,-546.44 319.56,-545.53 322.83,-549.32 322.76,-549.38 322.68,-549.45 319.41,-545.66 319.35,-552.32 316.22,-541.81 316.22,-541.81"/>
</g>
<!-- compute_%add&#45;&gt;compute_%retval.0 -->
<g id="edge27" class="edge">
<title>compute_%add&#45;&gt;compute_%retval.0</title>
<path fill="none" stroke="black" stroke-width="1.2" stroke-dasharray="5,2" d="M396.38,-601.77C432.27,-591.19 475,-570.46 475,-531.76 475,-531.76 475,-531.76 475,-193.76 475,-162.54 398.56,-140.06 334,-126.65"/>
<polygon fill="black" stroke="black" stroke-width="1.2" points="324.17,-124.65 334.86,-122.23 329.09,-125.55 333.99,-126.54 333.97,-126.64 333.95,-126.74 329.05,-125.74 333.07,-131.05 324.17,-124.65 324.17,-124.65"/>
</g>
<!-- compute_%inst_5a55e138fff0&#45;&gt;compute_%retval.0 -->
<g id="edge2" class="edge">
<title>compute_%inst_5a55e138fff0&#45;&gt;compute_%retval.0</title>
<path fill="none" stroke="#0066cc" stroke-width="2.5" d="M198.62,-183.72C206.89,-171.18 221.26,-149.4 232.01,-133.1"/>
<polygon fill="#0066cc" stroke="#0066cc" stroke-width="2.5" points="234.96,-134.97 237.55,-124.7 229.12,-131.12 234.96,-134.97"/>
</g>
<!-- compute_%inst_5a55e138ff80&#45;&gt;compute_%retval.0 -->
<g id="edge3" class="edge">
<title>compute_%inst_5a55e138ff80&#45;&gt;compute_%retval.0</title>
<path fill="none" stroke="#0066cc" stroke-width="2.5" d="M316.19,-183.72C303.71,-170.95 281.86,-148.59 265.85,-132.2"/>
<polygon fill="#0066cc" stroke="#0066cc" stroke-width="2.5" points="268.01,-129.4 258.52,-124.7 263.01,-134.3 268.01,-129.4"/>
</g>
<!-- compute_%inst_5a55e1390090 -->
<g id="node11" class="node">
<title>compute_%inst_5a55e1390090</title>
<polygon fill="#ffe0e0" stroke="#cc0000" points="297,-38 195,-38 195,-16 297,-16 297,-38"/>
<text text-anchor="middle" x="246" y="-25.1" font-family="Courier New" font-size="8.00"> &#160;ret i32 %retval.0</text>
</g>
<!-- compute_%retval.0&#45;&gt;compute_%inst_5a55e1390090 -->
<g id="edge1" class="edge">
<title>compute_%retval.0&#45;&gt;compute_%inst_5a55e1390090</title>
<path fill="none" stroke="#0066cc" stroke-width="2.5" d="M235.88,-97.09C232.06,-84.06 231.48,-63.66 234.14,-48.39"/>
<polygon fill="#0066cc" stroke="#0066cc" stroke-width="2.5" points="237.62,-48.92 236.65,-38.37 230.83,-47.22 237.62,-48.92"/>
</g>
<!-- compute_%retval.0&#45;&gt;compute_%inst_5a55e1390090 -->
<g id="edge12" class="edge">
<title>compute_%retval.0&#45;&gt;compute_%inst_5a55e1390090</title>
<path fill="none" stroke="black" stroke-width="1.2" stroke-dasharray="5,2" d="M256.12,-97.09C259.94,-84.06 260.52,-63.66 257.86,-48.39"/>
<polygon fill="black" stroke="black" stroke-width="1.2" points="255.35,-38.37 262.14,-46.98 256.66,-43.2 257.87,-48.05 257.78,-48.07 257.68,-48.09 256.46,-43.24 253.41,-49.16 255.35,-38.37 255.35,-38.37"/>
</g>
<!-- main::const_2 -->
<g id="node13" class="node">
<title>main::const_2</title>
<ellipse fill="#e0e0e0" stroke="black" cx="920" cy="-812.8" rx="62.87" ry="12.04"/>
<text text-anchor="middle" x="920" y="-810.9" font-family="Courier New" font-size="8.00">i32 2 &#160;&#160;&#160;VALUE=2</text>
</g>
<!-- main_%call -->
<g id="node16" class="node">
<title>main_%call</title>
<polygon fill="#d9ffff" stroke="#1aa3a3" points="1178.04,-727.8 638.71,-727.8 499.96,-693.8 1039.29,-693.8 1178.04,-727.8"/>
<text text-anchor="middle" x="839" y="-708.9" font-family="Courier New" font-size="8.00"> &#160;%call = call i32 @compute(i32 noundef 2, i32 noundef 5) &#160;&#160;&#160;VALUE=10</text>
</g>
<!-- main::const_2&#45;&gt;main_%call -->
<g id="edge13" class="edge">
<title>main::const_2&#45;&gt;main_%call</title>
<path fill="none" stroke="black" stroke-width="1.2" stroke-dasharray="5,2" d="M911.02,-800.72C898.42,-785.17 875.18,-756.46 858.5,-735.87"/>
<polygon fill="black" stroke="black" stroke-width="1.2" points="852.02,-727.88 861.81,-732.82 855.25,-731.7 858.39,-735.59 858.32,-735.65 858.24,-735.71 855.09,-731.83 854.82,-738.48 852.02,-727.88 852.02,-727.88"/>
</g>
<!-- main::const_5 -->
<g id="node14" class="node">
<title>main::const_5</title>
<ellipse fill="#e0e0e0" stroke="black" cx="758" cy="-812.8" rx="62.87" ry="12.04"/>
<text text-anchor="middle" x="758" y="-810.9" font-family="Courier New" font-size="8.00">i32 5 &#160;&#160;&#160;VALUE=5</text>
</g>
<!-- main::const_5&#45;&gt;main_%call -->
<g id="edge14" class="edge">
<title>main::const_5&#45;&gt;main_%call</title>
<path fill="none" stroke="black" stroke-width="1.2" stroke-dasharray="5,2" d="M766.98,-800.72C779.58,-785.17 802.82,-756.46 819.5,-735.87"/>
<polygon fill="black" stroke="black" stroke-width="1.2" points="825.98,-727.88 823.18,-738.48 822.91,-731.83 819.76,-735.71 819.68,-735.65 819.61,-735.59 822.75,-731.7 816.19,-732.82 825.98,-727.88 825.98,-727.88"/>
</g>
<!-- main::const_10 -->
<g id="node15" class="node">
<title>main::const_10</title>
<ellipse fill="#e0e0e0" stroke="black" cx="1283" cy="-710.8" rx="69.09" ry="12.04"/>
<text text-anchor="middle" x="1283" y="-708.9" font-family="Courier New" font-size="8.00">i32 10 &#160;&#160;&#160;VALUE=10</text>
</g>
<!-- main_%sub -->
<g id="node18" class="node">
<title>main_%sub</title>
<polygon fill="white" stroke="black" points="939.5,-623.78 738.5,-623.78 738.5,-601.78 939.5,-601.78 939.5,-623.78"/>
<text text-anchor="middle" x="839" y="-610.88" font-family="Courier New" font-size="8.00"> &#160;%sub = sub nsw i32 %call, 10 &#160;&#160;&#160;VALUE=0</text>
</g>
<!-- main::const_10&#45;&gt;main_%sub -->
<g id="edge20" class="edge">
<title>main::const_10&#45;&gt;main_%sub</title>
<path fill="none" stroke="black" stroke-width="1.2" stroke-dasharray="5,2" d="M1242.42,-701.03C1162.77,-683.8 985.86,-645.54 895.09,-625.91"/>
<polygon fill="black" stroke="black" stroke-width="1.2" points="885.26,-623.79 895.98,-621.5 890.17,-624.74 895.05,-625.8 895.03,-625.9 895.01,-626 890.12,-624.94 894.08,-630.3 885.26,-623.79 885.26,-623.79"/>
</g>
<!-- main_%call&#45;&gt;compute_%add -->
<g id="edge29" class="edge">
<title>main_%call&#45;&gt;compute_%add</title>
<path fill="none" stroke="#cc3366" stroke-width="2" d="M757.09,-693.78C659.07,-674.61 497.18,-642.96 409.32,-625.77"/>
<polygon fill="#cc3366" stroke="#cc3366" stroke-width="2" points="399.24,-623.8 409.92,-621.31 404.24,-624.27 409.15,-625.23 409.05,-625.72 408.96,-626.21 404.05,-625.25 408.19,-630.14 399.24,-623.8 399.24,-623.8"/>
<text text-anchor="middle" x="607" y="-656.6" font-family="Arial" font-size="9.00" fill="#cc3366">call #0</text>
</g>
<!-- main_%call&#45;&gt;main_%sub -->
<g id="edge6" class="edge">
<title>main_%call&#45;&gt;main_%sub</title>
<path fill="none" stroke="#0066cc" stroke-width="2.5" d="M828.57,-693.51C824.76,-677.03 824.5,-651.52 827.79,-633.81"/>
<polygon fill="#0066cc" stroke="#0066cc" stroke-width="2.5" points="831.23,-634.5 830.3,-623.94 824.44,-632.77 831.23,-634.5"/>
</g>
<!-- main_%call&#45;&gt;main_%sub -->
<g id="edge15" class="edge">
<title>main_%call&#45;&gt;main_%sub</title>
<path fill="none" stroke="black" stroke-width="1.2" stroke-dasharray="5,2" d="M849.43,-693.51C853.24,-677.03 853.5,-651.52 850.21,-633.81"/>
<polygon fill="black" stroke="black" stroke-width="1.2" points="847.7,-623.94 854.53,-632.52 849.03,-628.76 850.26,-633.61 850.17,-633.63 850.07,-633.66 848.84,-628.81 845.8,-634.74 847.7,-623.94 847.7,-623.94"/>
</g>
<!-- main_%inst_5a55e138f9e0 -->
<g id="node17" class="node">
<title>main_%inst_5a55e138f9e0</title>
<polygon fill="#ffe0e0" stroke="#cc0000" points="879,-541.76 799,-541.76 799,-519.76 879,-519.76 879,-541.76"/>
<text text-anchor="middle" x="839" y="-528.86" font-family="Courier New" font-size="8.00"> &#160;ret i32 %sub</text>
</g>
<!-- main_%sub&#45;&gt;main_%inst_5a55e138f9e0 -->
<g id="edge9" class="edge">
<title>main_%sub&#45;&gt;main_%inst_5a55e138f9e0</title>
<path fill="none" stroke="#0066cc" stroke-width="2.5" d="M829.65,-601.65C825.15,-589.14 824.31,-567.59 827.14,-551.71"/>
<polygon fill="#0066cc" stroke="#0066cc" stroke-width="2.5" points="830.58,-552.37 829.68,-541.81 823.8,-550.63 830.58,-552.37"/>
</g>
<!-- main_%sub&#45;&gt;main_%inst_5a55e138f9e0 -->
<g id="edge19" class="edge">
<title>main_%sub&#45;&gt;main_%inst_5a55e138f9e0</title>
<path fill="none" stroke="black" stroke-width="1.2" stroke-dasharray="5,2" d="M848.35,-601.65C852.85,-589.14 853.69,-567.59 850.86,-551.71"/>
<polygon fill="black" stroke="black" stroke-width="1.2" points="848.32,-541.81 855.17,-550.38 849.66,-546.63 850.9,-551.47 850.81,-551.5 850.71,-551.52 849.46,-546.68 846.45,-552.62 848.32,-541.81 848.32,-541.81"/>
</g>
<!-- leg_call_a -->
<g id="node19" class="node">
<title>leg_call_a</title>
<path fill="#ffffff" stroke="black" d="M1887,-830.8C1887,-830.8 1857,-830.8 1857,-830.8 1851,-830.8 1845,-824.8 1845,-818.8 1845,-818.8 1845,-806.8 1845,-806.8 1845,-800.8 1851,-794.8 1857,-794.8 1857,-794.8 1887,-794.8 1887,-794.8 1893,-794.8 1899,-800.8 1899,-806.8 1899,-806.8 1899,-818.8 1899,-818.8 1899,-824.8 1893,-830.8 1887,-830.8"/>
<text text-anchor="middle" x="1872" y="-810.3" font-family="Arial" font-size="10.00">Call</text>
</g>
<!-- leg_call_b -->
<g id="node20" class="node">
<title>leg_call_b</title>
<path fill="#ffffff" stroke="black" d="M2020,-830.8C2020,-830.8 1990,-830.8 1990,-830.8 1984,-830.8 1978,-824.8 1978,-818.8 1978,-818.8 1978,-806.8 1978,-806.8 1978,-800.8 1984,-794.8 1990,-794.8 1990,-794.8 2020,-794.8 2020,-794.8 2026,-794.8 2032,-800.8 2032,-806.8 2032,-806.8 2032,-818.8 2032,-818.8 2032,-824.8 2026,-830.8 2020,-830.8"/>
</g>
<!-- leg_call_a&#45;&gt;leg_call_b -->
<g id="edge30" class="edge">
<title>leg_call_a&#45;&gt;leg_call_b</title>
<path fill="none" stroke="#cc3366" stroke-width="2" d="M1899.24,-812.8C1918.96,-812.8 1945.86,-812.8 1967.6,-812.8"/>
<polygon fill="#cc3366" stroke="#cc3366" stroke-width="2" points="1977.8,-812.8 1967.8,-817.3 1972.8,-813.3 1967.8,-813.3 1967.8,-812.8 1967.8,-812.3 1972.8,-812.3 1967.8,-808.3 1977.8,-812.8 1977.8,-812.8"/>
<text text-anchor="middle" x="1938.5" y="-818.6" font-family="Arial" font-size="9.00" fill="#cc3366">call edges</text>
</g>
<!-- leg_du_a -->
<g id="node21" class="node">
<title>leg_du_a</title>
<path fill="#ffffff" stroke="black" d="M1645,-830.8C1645,-830.8 1615,-830.8 1615,-830.8 1609,-830.8 1603,-824.8 1603,-818.8 1603,-818.8 1603,-806.8 1603,-806.8 1603,-800.8 1609,-794.8 1615,-794.8 1615,-794.8 1645,-794.8 1645,-794.8 1651,-794.8 1657,-800.8 1657,-806.8 1657,-806.8 1657,-818.8 1657,-818.8 1657,-824.8 1651,-830.8 1645,-830.8"/>
<text text-anchor="middle" x="1630" y="-810.3" font-family="Arial" font-size="10.00">Def&#45;Use</text>
</g>
<!-- leg_du_b -->
<g id="node22" class="node">
<title>leg_du_b</title>
<path fill="#ffffff" stroke="black" d="M1797,-830.8C1797,-830.8 1767,-830.8 1767,-830.8 1761,-830.8 1755,-824.8 1755,-818.8 1755,-818.8 1755,-806.8 1755,-806.8 1755,-800.8 1761,-794.8 1767,-794.8 1767,-794.8 1797,-794.8 1797,-794.8 1803,-794.8 1809,-800.8 1809,-806.8 1809,-806.8 1809,-818.8 1809,-818.8 1809,-824.8 1803,-830.8 1797,-830.8"/>
</g>
<!-- leg_du_a&#45;&gt;leg_du_b -->
<g id="edge31" class="edge">
<title>leg_du_a&#45;&gt;leg_du_b</title>
<path fill="none" stroke="black" stroke-width="1.2" stroke-dasharray="5,2" d="M1657.17,-812.8C1681.52,-812.8 1717.47,-812.8 1744.54,-812.8"/>
<polygon fill="black" stroke="black" stroke-width="1.2" points="1754.8,-812.8 1744.8,-817.3 1749.8,-812.9 1744.8,-812.9 1744.8,-812.8 1744.8,-812.7 1749.8,-812.7 1744.8,-808.3 1754.8,-812.8 1754.8,-812.8"/>
<text text-anchor="middle" x="1706" y="-818.6" font-family="Arial" font-size="9.00">Def&#45;Use edges</text>
</g>
<!-- leg_cfg_a -->
<g id="node23" class="node">
<title>leg_cfg_a</title>
<path fill="#ffffff" stroke="black" d="M1418,-830.8C1418,-830.8 1388,-830.8 1388,-830.8 1382,-830.8 1376,-824.8 1376,-818.8 1376,-818.8 1376,-806.8 1376,-806.8 1376,-800.8 1382,-794.8 1388,-794.8 1388,-794.8 1418,-794.8 1418,-794.8 1424,-794.8 1430,-800.8 1430,-806.8 1430,-806.8 1430,-818.8 1430,-818.8 1430,-824.8 1424,-830.8 1418,-830.8"/>
<text text-anchor="middle" x="1403" y="-810.3" font-family="Arial" font-size="10.00">CFG</text>
</g>
<!-- leg_cfg_b -->
<g id="node24" class="node">
<title>leg_cfg_b</title>
<path fill="#ffffff" stroke="black" d="M1555,-830.8C1555,-830.8 1525,-830.8 1525,-830.8 1519,-830.8 1513,-824.8 1513,-818.8 1513,-818.8 1513,-806.8 1513,-806.8 1513,-800.8 1519,-794.8 1525,-794.8 1525,-794.8 1555,-794.8 1555,-794.8 1561,-794.8 1567,-800.8 1567,-806.8 1567,-806.8 1567,-818.8 1567,-818.8 1567,-824.8 1561,-830.8 1555,-830.8"/>
</g>
<!-- leg_cfg_a&#45;&gt;leg_cfg_b -->
<g id="edge32" class="edge">
<title>leg_cfg_a&#45;&gt;leg_cfg_b</title>
<path fill="none" stroke="#0066cc" stroke-width="2.5" d="M1430.07,-812.8C1450.89,-812.8 1479.91,-812.8 1502.9,-812.8"/>
<polygon fill="#0066cc" stroke="#0066cc" stroke-width="2.5" points="1502.99,-816.3 1512.99,-812.8 1502.99,-809.3 1502.99,-816.3"/>
<text text-anchor="middle" x="1471.5" y="-818.6" font-family="Arial" font-size="9.00" fill="#0066cc">CFG edges</text>
</g>
</g>
</svg>
